<svg xmlns="http://www.w3.org/2000/svg" viewBox="0 0 64 64">
  <rect width="64" height="64" rx="14" fill="#0e141a"/>
  <rect x="8" y="8" width="48" height="48" rx="12" fill="#161c22" stroke="#3d494c"/>
  <path
    d="M50.5 34.7c-.5 6.2-5.5 11.2-11.7 11.6-5.4.3-10.1-2.8-12.2-7.4.4 5 2.8 9.5 7.1 13.7.7.6.2 1.7-.7 1.7H15.4c-.9 0-1.3-1.1-.7-1.7 4.3-4.2 6.7-8.7 7.1-13.7-2 4.6-6.8 7.7-12.2 7.4C3.5 45.9-1.6 40.9-2 34.7c-.5-7.3 5.3-13.4 12.5-13.4 1 0 2 .1 2.9.3-1-1.8-1.6-3.8-1.6-6 0-7 5.8-12.7 12.8-12.5 6.5.2 11.9 5.4 12.1 11.9.1 2.4-.5 4.7-1.5 6.6.9-.2 1.9-.3 2.9-.3 7.2 0 13 6.1 12.4 13.4z"
    fill="#63e2fa"
    transform="translate(7.7 3.8) scale(.93)"
  />
</svg>
