<?xml version="1.0" encoding="UTF-8" standalone="no"?>
<svg
   version="1.1"
   viewBox="-5 -10 79.998123 77.726608"
   id="svg2"
   sodipodi:docname="noun-club-8269128.svg"
   width="79.998123"
   height="77.726608"
   inkscape:version="1.4.2 (f4327f4, 2025-05-13)"
   xmlns:inkscape="http://www.inkscape.org/namespaces/inkscape"
   xmlns:sodipodi="http://sodipodi.sourceforge.net/DTD/sodipodi-0.dtd"
   xmlns="http://www.w3.org/2000/svg"
   xmlns:svg="http://www.w3.org/2000/svg">
  <defs
     id="defs2" />
  <sodipodi:namedview
     id="namedview2"
     pagecolor="#ffffff"
     bordercolor="#000000"
     borderopacity="0.25"
     inkscape:showpageshadow="2"
     inkscape:pageopacity="0.0"
     inkscape:pagecheckerboard="0"
     inkscape:deskcolor="#d1d1d1"
     inkscape:zoom="5.8518519"
     inkscape:cx="39.987342"
     inkscape:cy="46.310127"
     inkscape:window-width="1920"
     inkscape:window-height="992"
     inkscape:window-x="-8"
     inkscape:window-y="-8"
     inkscape:window-maximized="1"
     inkscape:current-layer="svg2" />
  <path
     d="m 74.953479,37.979508 c -0.65625,9.4297 -8.3477,17.035 -17.785,17.594 -8.2266,0.48828 -15.398,-4.2695 -18.5,-11.238 0.57031,7.5234 4.2422,14.434 10.793,20.77 0.98828,0.95312 0.33203,2.6211 -1.043,2.6211 h -26.836 c -1.375,0 -2.0312,-1.668 -1.043,-2.6211 6.5508,-6.3359 10.223,-13.246 10.793,-20.77 -3.1016,6.9688 -10.273,11.723 -18.5,11.238 -9.4375003,-0.55859 -17.1290003,-8.1602 -17.7850003,-17.594 -0.77344,-11.102 8.0039,-20.348 18.9380003,-20.348 1.5078,0 2.9766,0.17969 4.3828,0.51562 -1.5,-2.7148 -2.3555,-5.8359 -2.3555,-9.1602002 0,-10.66 8.7812,-19.2659998 19.508,-18.98 9.8672,0.26562 18.008,8.25 18.445,18.113 0.16406,3.6445002 -0.70703,7.0742002 -2.3359,10.0270002 1.4062,-0.33203 2.875,-0.51562 4.3828,-0.51562 10.938,0 19.711,9.2461 18.938,20.348 z"
     id="path1" />
</svg>
